{
    "asset" : {
        "generator" : "Khronos glTF Blender I/O v1.5.17",
        "version" : "2.0"
    },
    "scene" : 0,
    "scenes" : [
        {
            "name" : "Scene",
            "nodes" : [
                0,
                1,
                2,
                3,
                4,
                5
            ]
        }
    ],
    "nodes" : [
        {
            "name" : "Light",
            "rotation" : [
                0.16907575726509094,
                0.7558803558349609,
                -0.27217137813568115,
                0.570947527885437
            ],
            "translation" : [
                3.922490119934082,
                6.523979187011719,
                0.2398616075515747
            ]
        },
        {
            "name" : "Camera",
            "rotation" : [
                0.483536034822464,
                0.33687159419059753,
                -0.20870360732078552,
                0.7804827094078064
            ],
            "translation" : [
                7.358891487121582,
                4.958309173583984,
                6.925790786743164
            ]
        },
        {
            "name" : "Mball",
            "scale" : [
                0.029432717710733414,
                0.1120966225862503,
                0.1120966225862503
            ],
            "translation" : [
                -0.01422525942325592,
                4.0395026206970215,
                0.7077531218528748
            ]
        },
        {
            "name" : "Light.001",
            "rotation" : [
                0.16907575726509094,
                0.7558803558349609,
                -0.27217137813568115,
                0.570947527885437
            ],
            "translation" : [
                3.922490119934082,
                6.523979187011719,
                0.2398616075515747
            ]
        },
        {
            "name" : "Mball.001",
            "rotation" : [
                0.13357345759868622,
                0.03343021497130394,
                -0.06171995401382446,
                0.988550066947937
            ],
            "scale" : [
                0.1120966225862503,
                0.1120966225862503,
                0.1120966225862503
            ],
            "translation" : [
                0.4785991311073303,
                3.9601128101348877,
                1.643705129623413
            ]
        },
        {
            "mesh" : 0,
            "name" : "Cube.008",
            "translation" : [
                -0.1681625247001648,
                0.49547237157821655,
                1.1929738521575928
            ]
        }
    ],
    "materials" : [
        {
            "doubleSided" : true,
            "name" : "Material.002",
            "pbrMetallicRoughness" : {
                "baseColorFactor" : [
                    0.2509189546108246,
                    0.8000000715255737,
                    0.3860163986682892,
                    1
                ],
                "metallicFactor" : 0,
                "roughnessFactor" : 0.4000000059604645
            }
        },
        {
            "doubleSided" : true,
            "name" : "Material.005",
            "pbrMetallicRoughness" : {
                "baseColorFactor" : [
                    0.7755050659179688,
                    0.8000000715255737,
                    0.4341018497943878,
                    1
                ],
                "metallicFactor" : 0,
                "roughnessFactor" : 0.4000000059604645
            }
        },
        {
            "doubleSided" : true,
            "name" : "Material.003",
            "pbrMetallicRoughness" : {
                "baseColorFactor" : [
                    0.22616788744926453,
                    0.31265732645988464,
                    0.8000000715255737,
                    1
                ],
                "metallicFactor" : 0,
                "roughnessFactor" : 0.4000000059604645
            }
        },
        {
            "doubleSided" : true,
            "name" : "Material.001",
            "pbrMetallicRoughness" : {
                "baseColorFactor" : [
                    0.03741001337766647,
                    0.03741001337766647,
                    0.03741001337766647,
                    1
                ],
                "metallicFactor" : 0,
                "roughnessFactor" : 0.4000000059604645
            }
        }
    ],
    "meshes" : [
        {
            "name" : "Cube.008",
            "primitives" : [
                {
                    "attributes" : {
                        "POSITION" : 0,
                        "NORMAL" : 1,
                        "TEXCOORD_0" : 2
                    },
                    "indices" : 3,
                    "material" : 0
                },
                {
                    "attributes" : {
                        "POSITION" : 4,
                        "NORMAL" : 5,
                        "TEXCOORD_0" : 6
                    },
                    "indices" : 7,
                    "material" : 1
                },
                {
                    "attributes" : {
                        "POSITION" : 8,
                        "NORMAL" : 9,
                        "TEXCOORD_0" : 10
                    },
                    "indices" : 11,
                    "material" : 2
                },
                {
                    "attributes" : {
                        "POSITION" : 12,
                        "NORMAL" : 13,
                        "TEXCOORD_0" : 14
                    },
                    "indices" : 15,
                    "material" : 3
                }
            ]
        }
    ],
    "accessors" : [
        {
            "bufferView" : 0,
            "componentType" : 5126,
            "count" : 72,
            "max" : [
                1.1252328157424927,
                1.9146429300308228,
                2.1440632343292236
            ],
            "min" : [
                -1,
                -1,
                -2.6264638900756836
            ],
            "type" : "VEC3"
        },
        {
            "bufferView" : 1,
            "componentType" : 5126,
            "count" : 72,
            "type" : "VEC3"
        },
        {
            "bufferView" : 2,
            "componentType" : 5126,
            "count" : 72,
            "type" : "VEC2"
        },
        {
            "bufferView" : 3,
            "componentType" : 5123,
            "count" : 108,
            "type" : "SCALAR"
        },
        {
            "bufferView" : 4,
            "componentType" : 5126,
            "count" : 72,
            "max" : [
                0.8576143980026245,
                3.377997875213623,
                0.8464802503585815
            ],
            "min" : [
                -0.7028218507766724,
                0.6195151209831238,
                -0.6545628309249878
            ],
            "type" : "VEC3"
        },
        {
            "bufferView" : 5,
            "componentType" : 5126,
            "count" : 72,
            "type" : "VEC3"
        },
        {
            "bufferView" : 6,
            "componentType" : 5126,
            "count" : 72,
            "type" : "VEC2"
        },
        {
            "bufferView" : 7,
            "componentType" : 5123,
            "count" : 108,
            "type" : "SCALAR"
        },
        {
            "bufferView" : 8,
            "componentType" : 5126,
            "count" : 72,
            "max" : [
                2.681297779083252,
                2.3649680614471436,
                0.8042657971382141
            ],
            "min" : [
                1.1902590990066528,
                -0.947592556476593,
                -2.384401559829712
            ],
            "type" : "VEC3"
        },
        {
            "bufferView" : 9,
            "componentType" : 5126,
            "count" : 72,
            "type" : "VEC3"
        },
        {
            "bufferView" : 10,
            "componentType" : 5126,
            "count" : 72,
            "type" : "VEC2"
        },
        {
            "bufferView" : 11,
            "componentType" : 5123,
            "count" : 108,
            "type" : "SCALAR"
        },
        {
            "bufferView" : 12,
            "componentType" : 5126,
            "count" : 24,
            "max" : [
                0.927757740020752,
                2.1883983612060547,
                0.7159475088119507
            ],
            "min" : [
                -0.4876190721988678,
                1.1602615118026733,
                -0.5739105939865112
            ],
            "type" : "VEC3"
        },
        {
            "bufferView" : 13,
            "componentType" : 5126,
            "count" : 24,
            "type" : "VEC3"
        },
        {
            "bufferView" : 14,
            "componentType" : 5126,
            "count" : 24,
            "type" : "VEC2"
        },
        {
            "bufferView" : 15,
            "componentType" : 5123,
            "count" : 36,
            "type" : "SCALAR"
        }
    ],
    "bufferViews" : [
        {
            "buffer" : 0,
            "byteLength" : 864,
            "byteOffset" : 0
        },
        {
            "buffer" : 0,
            "byteLength" : 864,
            "byteOffset" : 864
        },
        {
            "buffer" : 0,
            "byteLength" : 576,
            "byteOffset" : 1728
        },
        {
            "buffer" : 0,
            "byteLength" : 216,
            "byteOffset" : 2304
        },
        {
            "buffer" : 0,
            "byteLength" : 864,
            "byteOffset" : 2520
        },
        {
            "buffer" : 0,
            "byteLength" : 864,
            "byteOffset" : 3384
        },
        {
            "buffer" : 0,
            "byteLength" : 576,
            "byteOffset" : 4248
        },
        {
            "buffer" : 0,
            "byteLength" : 216,
            "byteOffset" : 4824
        },
        {
            "buffer" : 0,
            "byteLength" : 864,
            "byteOffset" : 5040
        },
        {
            "buffer" : 0,
            "byteLength" : 864,
            "byteOffset" : 5904
        },
        {
            "buffer" : 0,
            "byteLength" : 576,
            "byteOffset" : 6768
        },
        {
            "buffer" : 0,
            "byteLength" : 216,
            "byteOffset" : 7344
        },
        {
            "buffer" : 0,
            "byteLength" : 288,
            "byteOffset" : 7560
        },
        {
            "buffer" : 0,
            "byteLength" : 288,
            "byteOffset" : 7848
        },
        {
            "buffer" : 0,
            "byteLength" : 192,
            "byteOffset" : 8136
        },
        {
            "buffer" : 0,
            "byteLength" : 72,
            "byteOffset" : 8328
        }
    ],
    "buffers" : [
        {
            "byteLength" : 8400,
            "uri" : "data:application/octet-stream;base64,"
        }
    ]
}
